<?xml version="1.0" standalone="no"?>
<!DOCTYPE svg PUBLIC "-//W3C//DTD SVG 20010904//EN"
 "http://www.w3.org/TR/2001/REC-SVG-20010904/DTD/svg10.dtd">
<svg version="1.0" xmlns="http://www.w3.org/2000/svg"
 width="625.000000pt" height="625.000000pt" viewBox="0 0 625.000000 625.000000"
 preserveAspectRatio="xMidYMid meet">
<metadata>
Created by potrace 1.11, written by Peter Selinger 2001-2013
</metadata>
<g transform="translate(0.000000,625.000000) scale(0.100000,-0.100000)"
fill="#000000" stroke="none">
<path d="M10 3125 l0 -3125 3120 0 3120 0 0 3125 0 3125 -3120 0 -3120 0 0
-3125z m1920 2223 c113 -21 239 -77 333 -147 66 -49 177 -165 177 -184 0 -15
-178 -190 -212 -208 -13 -7 -30 4 -81 55 -120 117 -235 169 -379 169 -417 -1
-694 -530 -498 -950 103 -222 289 -353 500 -353 142 0 266 56 380 174 30 31
60 56 66 56 12 0 202 -172 217 -197 15 -24 -3 -51 -87 -130 -95 -90 -213 -161
-331 -199 -108 -35 -293 -44 -413 -20 -302 61 -546 287 -655 607 -75 217 -76
502 -3 716 151 444 554 694 986 611z m1340 -7 c6 -13 10 -157 10 -400 l0 -381
400 0 400 0 0 388 c0 288 3 391 12 400 8 8 61 12 174 12 138 0 163 -2 168 -16
3 -9 6 -446 6 -973 0 -731 -3 -960 -12 -969 -17 -17 -319 -17 -336 0 -9 9 -12
112 -12 400 l0 388 -400 0 -400 0 0 -375 c0 -206 1 -376 2 -377 1 -2 -4 -13
-11 -25 -11 -22 -16 -23 -171 -23 -131 0 -161 3 -174 16 -14 14 -16 115 -16
965 0 636 3 957 10 970 10 18 23 19 175 19 152 0 165 -1 175 -19z m2000 -3
c13 -34 13 -1904 0 -1928 -10 -19 -22 -20 -170 -20 -131 0 -161 3 -174 16 -14
14 -16 116 -16 973 0 731 3 960 12 969 8 8 62 12 175 12 160 0 164 0 173 -22z
m-4040 -2488 c19 -10 20 -21 22 -486 l3 -475 66 88 c260 345 652 848 671 862
19 13 59 17 219 19 174 4 197 2 213 -13 16 -16 16 -19 0 -44 -16 -24 -217
-286 -566 -738 l-148 -192 358 -468 c197 -257 361 -476 365 -485 12 -34 -25
-40 -226 -36 -158 2 -196 6 -215 19 -13 9 -184 225 -380 480 l-357 464 -3
-472 c-2 -470 -2 -472 -23 -484 -24 -13 -305 -9 -326 4 -10 7 -13 213 -13 977
0 887 1 970 16 978 24 14 299 15 324 2z m2027 -5 c20 -14 85 -100 811 -1082
l372 -502 0 -186 0 -187 -84 3 c-54 3 -89 9 -101 19 -10 8 -126 159 -257 335
-131 176 -242 318 -246 315 -4 -3 -111 -147 -239 -320 -128 -173 -245 -323
-260 -332 -23 -15 -53 -18 -181 -18 -149 0 -153 1 -162 22 -12 32 -13 1889 0
1922 l10 26 158 0 c123 0 162 -3 179 -15z m2010 2 c11 -11 11 -1943 0 -1954
-5 -4 -83 -8 -173 -8 -136 0 -166 3 -174 15 -11 18 -14 1919 -2 1936 4 6 14
14 22 17 22 9 317 3 327 -6z"/>
<path d="M3270 1860 c0 -172 4 -299 9 -296 8 5 195 260 214 293 5 9 -27 59
-99 153 -59 78 -111 143 -115 146 -5 3 -9 -130 -9 -296z"/>
</g>
</svg>
